<?xml version="1.0" encoding="iso-8859-1"?>
<!-- Uploaded to: SVG Repo, www.svgrepo.com, Generator: SVG Repo Mixer Tools -->
<svg height="800px" width="800px" version="1.1" id="Layer_1" xmlns="http://www.w3.org/2000/svg" xmlns:xlink="http://www.w3.org/1999/xlink" 
	 viewBox="0 0 511.999 511.999" xml:space="preserve">
<g>
	<path style="fill:#63AAD0;" d="M436.505,118.17H75.494c-16.312,0-29.537,13.225-29.537,29.537l0,0
		c0,16.312,13.225,29.537,29.537,29.537h361.011c16.312,0,29.537-13.225,29.537-29.537l0,0
		C466.042,131.395,452.818,118.17,436.505,118.17z"/>
	<path style="fill:#63AAD0;" d="M338.211,13.13c-52.979,20.02-111.445,20.02-164.424,0c-18.27,35.014-36.538,70.027-54.808,105.041
		c91.346,0,182.692,0,274.04,0C374.75,83.157,356.481,48.143,338.211,13.13z"/>
</g>
<path style="fill:#F3C324;" d="M255.999,367.596L255.999,367.596c-79.752,0-144.404-64.652-144.404-144.404v-45.947h288.809v45.947
	C400.404,302.944,335.751,367.596,255.999,367.596z"/>
<g>
	<path style="fill:#63AAD0;" d="M173.634,236.319h41.332c10.337,0,18.716-8.379,18.716-18.716v-40.358h-78.766v40.358
		C154.916,227.94,163.296,236.319,173.634,236.319z"/>
	<path style="fill:#63AAD0;" d="M297.034,236.319h41.332c10.337,0,18.716-8.379,18.716-18.716v-40.358h-78.766v40.358
		C278.316,227.94,286.696,236.319,297.034,236.319z"/>
	<path style="fill:#63AAD0;" d="M379.318,376.588c-33.775,27.206-76.675,43.52-123.319,43.52c-46.645,0-89.545-16.312-123.319-43.52
		C83.834,395.71,49.239,443.25,49.239,498.874l0,0H462.76l0,0C462.76,443.249,428.165,395.71,379.318,376.588z"/>
</g>
<path d="M75.494,190.372h22.973v32.819c0,86.863,70.669,157.532,157.532,157.532s157.532-70.669,157.532-157.532v-32.819h22.973
	c23.526,0,42.665-19.14,42.665-42.665s-19.139-42.665-42.665-42.665h-35.529L349.849,7.057c-3.073-5.889-10.06-8.557-16.278-6.208
	c-50.022,18.904-105.12,18.903-155.143,0c-6.213-2.346-13.205,0.316-16.278,6.208l-51.128,97.985H75.494
	c-23.525,0-42.665,19.14-42.665,42.665S51.969,190.372,75.494,190.372z M387.276,223.193c0,72.386-58.889,131.277-131.277,131.277
	c-72.386,0-131.277-58.889-131.277-131.277v-32.819h17.066v27.231c0,17.558,14.286,31.844,31.844,31.844h41.332
	c17.558,0,31.844-14.286,31.844-31.844v-27.231h18.379v27.231c0,17.558,14.286,31.844,31.845,31.844h41.331
	c17.56,0,31.845-14.286,31.845-31.844v-27.231h17.066v32.819H387.276z M168.044,217.603v-27.231h52.511v27.231
	c0,3.082-2.507,5.588-5.588,5.588h-41.332C170.551,223.191,168.044,220.685,168.044,217.603z M291.444,217.603v-27.231h52.511
	v27.231c0,3.082-2.507,5.588-5.59,5.588h-41.331C293.951,223.191,291.444,220.685,291.444,217.603z M180.169,29.279
	c49.309,16.005,102.355,16.005,151.663,0l39.531,75.764H140.636L180.169,29.279z M75.494,131.298h361.011
	c9.049,0,16.41,7.361,16.41,16.41c0,9.049-7.361,16.41-16.41,16.41H75.494c-9.049,0-16.41-7.361-16.41-16.41
	C59.084,138.658,66.446,131.298,75.494,131.298z"/>
<path d="M333.833,273.718c-5.461-4.772-13.754-4.215-18.523,1.243c-14.998,17.155-36.616,26.994-59.311,26.994
	c-7.249,0-13.128,5.877-13.128,13.128s5.879,13.128,13.128,13.128c30.271,0,59.094-13.111,79.077-35.97
	C339.848,286.784,339.29,278.49,333.833,273.718z"/>
<path d="M384.104,364.362c-4.385-1.716-9.352-0.953-13.021,2.001c-32.513,26.191-73.384,40.614-115.084,40.614
	c-42.304,0-82.099-14.044-115.084-40.614c-3.667-2.954-8.635-3.719-13.02-2.001c-26.748,10.471-49.581,28.516-66.033,52.186
	c-16.847,24.239-25.751,52.705-25.751,82.322c0,7.25,5.877,13.128,13.128,13.128H462.76c7.249,0,13.128-5.877,13.128-13.128
	c0-29.619-8.904-58.085-25.751-82.322C433.685,392.879,410.851,374.834,384.104,364.362z M63.079,485.745
	c4.487-41.079,29.861-76.572,67.659-94.062c36.075,26.847,80.247,41.552,125.263,41.552c45.017,0,89.188-14.704,125.264-41.552
	c37.796,17.49,63.169,52.982,67.656,94.062H63.079z"/>
</svg>